<svg width="141" height="150" viewBox="0 0 141 150" fill="none" xmlns="http://www.w3.org/2000/svg">
<path d="M27.8804 42.0281H34.2878C36.8657 42.0281 38.9579 39.9281 38.9579 37.3406C38.9579 34.7531 36.8657 32.6531 34.2878 32.6531H27.8804C25.3025 32.6531 23.2103 34.7531 23.2103 37.3406C23.2103 39.9281 25.3025 42.0281 27.8804 42.0281Z" fill="white"/>
<path d="M51.1235 42.0281H57.5308C60.1087 42.0281 62.2009 39.9281 62.2009 37.3406C62.2009 34.7531 60.1087 32.6531 57.5308 32.6531H51.1235C48.5456 32.6531 46.4534 34.7531 46.4534 37.3406C46.4534 39.9281 48.5456 42.0281 51.1235 42.0281Z" fill="white"/>
<path d="M64.3585 61.5703V53.9109C64.3585 51.3234 62.2663 49.2234 59.6884 49.2234H24.3826C21.8047 49.2234 19.7125 51.3234 19.7125 53.9109C19.7125 56.4984 21.8047 58.5984 24.3826 58.5984H35.2078V61.5703C35.2078 69.6375 41.746 76.2 49.7832 76.2C57.8204 76.2 64.3585 69.6375 64.3585 61.5703ZM55.0184 61.5703C55.0184 64.4671 52.6693 66.825 49.7832 66.825C46.8971 66.825 44.548 64.4671 44.548 61.5703V58.5984H55.023V61.5703H55.0184Z" fill="white"/>
<path d="M77.346 87.9094C74.7681 87.9094 72.6759 90.0094 72.6759 92.5969V100.256C72.6759 103.153 70.3269 105.511 67.4408 105.511C64.5547 105.511 62.2056 103.153 62.2056 100.256V92.5969C62.2056 90.0094 60.1134 87.9094 57.5355 87.9094C54.9576 87.9094 52.8654 90.0094 52.8654 92.5969V100.256C52.8654 108.323 59.4035 114.886 67.4408 114.886C75.478 114.886 82.0161 108.323 82.0161 100.256V92.5969C82.0161 90.0094 79.9239 87.9094 77.346 87.9094Z" fill="white"/>
<path d="M42.0355 87.9094C39.4576 87.9094 37.3654 90.0094 37.3654 92.5969V100.256C37.3654 103.153 35.0163 105.511 32.1302 105.511C29.2441 105.511 26.8951 103.153 26.8951 100.256V92.5969C26.8951 90.0094 24.8029 87.9094 22.225 87.9094C19.6471 87.9094 17.5549 90.0094 17.5549 92.5969V100.256C17.5549 108.323 24.093 114.886 32.1302 114.886C40.1675 114.886 46.7056 108.323 46.7056 100.256V92.5969C46.7056 90.0094 44.6134 87.9094 42.0355 87.9094Z" fill="white"/>
<path d="M121.422 117.188C118.844 117.188 116.752 119.287 116.752 121.875C116.752 125.752 113.609 128.906 109.747 128.906C105.885 128.906 102.742 125.752 102.742 121.875V51.5625C102.742 23.1328 79.6951 0 51.371 0C23.0469 0 0 23.1328 0 51.5625V98.4375C0 126.867 23.0469 150 51.371 150H98.0719C113.521 150 126.092 137.381 126.092 121.875C126.092 119.287 124 117.188 121.422 117.188ZM98.0719 140.625H51.371C28.1933 140.625 9.34018 121.702 9.34018 98.4375V51.5625C9.34018 28.2984 28.1933 9.375 51.371 9.375C74.5487 9.375 93.4018 28.2984 93.4018 51.5625V121.875C93.4018 130.125 99.4963 136.969 107.403 138.113C104.657 139.711 101.467 140.625 98.0719 140.625Z" fill="white"/>
<path d="M135.33 90.3235C129.464 90.3235 125.924 92.6532 123.991 94.6079C119.765 98.8735 119.676 104.573 119.68 105.211L129.021 105.155V105.216C129.021 105.216 129.067 103.57 129.927 102.122C130.543 101.081 131.776 99.6985 135.335 99.6985C137.912 99.6985 140.005 97.5985 140.005 95.011C140.005 92.4235 137.912 90.3235 135.335 90.3235H135.33Z" fill="white"/>
</svg>
