<svg width="44" height="44" viewBox="0 0 44 44" fill="none" xmlns="http://www.w3.org/2000/svg">
<path fill-rule="evenodd" clip-rule="evenodd" d="M43.4088 43.4087C44.1971 42.6204 44.1971 41.3424 43.4088 40.5541L24.8545 21.9998L43.4086 3.4457C44.1969 2.65745 44.1969 1.37945 43.4086 0.591204C42.6204 -0.197043 41.3424 -0.197042 40.5541 0.591205L22 19.1453L3.44587 0.591186C2.65763 -0.197062 1.37962 -0.197062 0.591374 0.591186C-0.196875 1.37943 -0.196872 2.65744 0.591376 3.44569L19.1455 21.9998L0.591185 40.5542C-0.197062 41.3424 -0.197061 42.6204 0.591186 43.4087C1.37943 44.1969 2.65744 44.1969 3.44568 43.4087L22 24.8543L40.5543 43.4087C41.3426 44.1969 42.6206 44.1969 43.4088 43.4087Z" fill="white"/>
</svg>
