<svg width="105" height="105" viewBox="0 0 105 105" fill="none" xmlns="http://www.w3.org/2000/svg">
<rect width="105" height="105" rx="52.5" fill="white"/>
<g clip-path="url(#clip0_0_14)">
<path d="M56.9949 5.37801L56.1155 5.32019L56.8274 5.84062C56.705 6.12654 56.502 6.21327 56.2572 6.21649L56.0285 5.3748L55.7547 6.21327C55.4648 6.17472 55.2522 6.04301 55.2232 5.72818L55.9512 5.30412L55.0975 5.29127C54.9912 5.02142 55.075 4.75478 55.3617 4.64876L55.9802 5.2206L55.6967 4.33715C55.8835 4.17973 56.3345 4.18294 56.4569 4.4271L56.0994 5.23345L56.6857 4.7098C56.9562 4.80939 57.069 5.10495 56.9949 5.37159V5.37801Z" fill="black"/>
<path d="M64.4362 11.5046C64.565 10.8653 64.6939 10.2292 64.8227 9.58989C64.8292 9.5674 64.958 8.8767 64.0045 8.68395C63.8048 8.6454 63.5632 8.64861 63.2539 8.71286C63.0896 9.52885 62.9286 10.3609 62.7675 11.1608C62.7578 11.2122 62.6709 11.6845 62.8899 12.2756L61.1858 11.9318C61.5917 11.6042 61.7045 11.0998 61.7334 10.952L62.6129 6.60222C62.6129 6.60222 62.6258 6.53797 62.6322 6.4448L61.0441 6.12676L60.1228 10.6725C60.1228 10.6725 60.0229 11.1705 60.2484 11.7423L58.409 11.3729C58.802 11.0709 58.9309 10.5215 58.947 10.4444L59.8683 5.88903L59.1854 5.75089C59.0501 5.73162 58.9212 5.75089 58.7988 5.80551L58.1706 6.11712L57.9645 4.88672L62.4808 5.79587C62.5259 5.77659 63.9046 5.3943 63.9046 5.3943L63.2861 8.45907C63.5116 8.31772 64.4329 7.83262 65.0708 7.96113C66.0597 8.1603 65.9405 8.88634 65.8536 9.31361L65.8374 9.39071C65.7472 9.83725 65.38 11.6909 65.3768 11.7166C65.3575 11.8194 65.3156 12.1503 65.4992 12.796L63.8982 12.4748C64.3653 11.7551 64.4297 11.5367 64.4362 11.5014V11.5046Z" fill="black"/>
<path d="M65.6345 13.0817C66.0662 12.8151 66.2562 12.3268 66.2981 12.2079L66.9939 10.1872C66.9939 10.1872 67.1647 9.68926 66.9327 9.31339L68.45 9.16562L67.3032 12.5259C67.2903 12.5677 67.1389 13.0303 67.2806 13.6439L65.6377 13.0817H65.6345ZM67.5287 7.48545L68.5982 6.99072C68.7012 7.63644 69.091 8.03801 69.091 8.03801L68.0248 8.60663C67.5963 8.12796 67.5287 7.48545 67.5287 7.48545Z" fill="black"/>
<path d="M71.3009 14.1965C71.2107 14.4053 70.7178 15.1859 69.0846 14.4952C67.9378 14.0101 67.7896 13.146 67.7896 13.146L68.9139 12.6802C68.9139 12.6802 69.033 13.8335 70.1025 14.2961C70.2249 14.3507 70.3602 14.3475 70.502 14.2896C70.5857 14.0937 70.2056 13.5957 69.6644 12.7701C68.8881 11.4819 68.9654 10.9903 69.1361 10.5856C69.3069 10.184 70.0735 9.77601 71.011 10.1712C72.1094 10.637 72.2157 11.196 72.2157 11.196L71.4072 12.0409C71.4072 12.0409 70.9981 10.849 70.2314 10.5245C69.9962 10.4249 69.8674 10.4249 69.8319 10.5149C69.7482 10.7076 70.1347 11.2827 70.6502 12.1597C71.2912 13.2488 71.5425 13.6279 71.2977 14.1933L71.3009 14.1965Z" fill="black"/>
<path d="M72.525 15.9828C72.9985 15.7997 73.2723 15.3499 73.3335 15.2407L74.3805 13.3774C74.3805 13.3774 74.6382 12.918 74.4771 12.5068L75.9944 12.6321L74.2645 15.7322C74.2419 15.7708 74.0132 16.1981 74.0422 16.8277L72.525 15.9828ZM75.3952 10.817L76.5355 10.5215C76.5227 11.1736 76.8319 11.6395 76.8319 11.6395L75.6787 12.0089C75.3436 11.4595 75.392 10.817 75.392 10.817H75.3952Z" fill="black"/>
<path d="M77.9014 18.0935C77.7758 18.283 77.1508 18.9609 75.669 17.9907C74.6285 17.3096 74.6382 16.4358 74.6382 16.4358L75.8269 16.1788C75.8269 16.1788 75.7367 17.3353 76.7063 17.9811C76.8158 18.0582 76.9479 18.0774 77.1025 18.0453C77.2217 17.8654 76.935 17.3096 76.5517 16.4037C76.0169 14.9998 76.1812 14.5308 76.4228 14.1613C76.6644 13.7951 77.4891 13.5317 78.3395 14.0875C79.3381 14.7428 79.3414 15.3082 79.3414 15.3082L78.3943 15.9957C78.3943 15.9957 78.2074 14.7525 77.5084 14.2963C77.2958 14.1549 77.1702 14.1356 77.1186 14.2127C77.0027 14.3894 77.2797 15.0223 77.6308 15.9764C78.0689 17.1619 78.2429 17.5795 77.9046 18.0935H77.9014Z" fill="black"/>
<path d="M82.1052 22.3339L81.0873 22.0094C81.0873 22.0094 80.8521 21.6786 81.1872 21.2963L81.2902 21.1774C81.0358 21.2031 80.1467 21.2641 79.7665 20.9365C79.351 20.5766 79.2962 19.3141 79.715 18.8354C79.8439 18.6877 80.021 18.6138 80.2465 18.6652C81.1002 18.8708 82.1922 19.1535 82.8333 19.327C82.975 19.1888 83.4067 18.5945 83.1973 18.4146C82.7849 18.058 82.1085 18.0516 81.5705 18.2829L81.9506 17.1649C82.6722 17.1232 83.2875 17.5504 83.6193 18.1833C84.241 19.3655 83.8126 19.886 83.6998 20.0145C83.2295 20.5542 82.8397 21.0039 82.3694 21.5436C82.3146 21.6047 82.0344 21.9516 82.1052 22.3403V22.3339ZM81.4803 20.9557L82.6271 19.5711C82.4757 19.5454 82.131 19.4876 81.2806 19.343C81.0003 19.2981 80.7845 19.4009 80.646 19.5583C80.4591 19.7703 80.4173 20.0851 80.5493 20.265C80.617 20.355 80.7104 20.4514 80.8103 20.5381C81.0325 20.7308 81.3063 20.8979 81.4803 20.9557Z" fill="black"/>
<path d="M87.6556 25.6397C86.628 26.5264 85.3975 26.7384 84.6211 25.8486C84.4053 25.6012 84.2217 25.2703 84.0993 24.8462L83.4743 25.386C83.4357 25.4213 83.0749 25.7425 82.888 26.3433L81.7509 25.0326C82.2631 25.0197 82.6722 24.6888 82.7656 24.6085L85.71 22.0642C85.7196 22.0481 86.0643 21.7269 86.0965 21.2803C86.103 21.2739 87.4688 21.9003 87.4688 21.9003L86.831 22.4497C87.05 22.5011 88.1485 22.7228 88.5093 23.1404C89.0956 23.815 88.4481 24.9523 87.6524 25.6397H87.6556ZM86.6892 24.994C87.1338 24.6117 87.5075 24.1588 87.5654 23.8793C87.6073 23.6351 87.4591 23.3685 87.2691 23.15C87.05 22.8994 86.773 22.7003 86.6345 22.6328L84.8821 24.1459C84.5535 24.5186 84.5632 24.9362 84.9175 25.402C85.0335 25.5337 85.1913 25.6397 85.3749 25.6783C85.6648 25.7297 86.2093 25.4084 86.686 24.9972L86.6892 24.994Z" fill="black"/>
<path d="M88.7251 29.3054C89.2631 28.936 89.7979 28.5665 90.3358 28.1971C90.3551 28.1842 90.9285 27.7762 90.3745 26.9795C90.2585 26.8125 90.0813 26.6486 89.8172 26.4816C89.131 26.9538 88.4352 27.4453 87.7652 27.9079C87.7233 27.9369 87.3303 28.2196 87.079 28.7946L86.0901 27.3682C86.6119 27.4132 87.0436 27.1273 87.166 27.0406L90.8255 24.5187C90.8255 24.5187 91.2378 24.236 91.2958 23.7798C91.3022 23.7734 92.594 24.5444 92.594 24.5444L90.0169 26.321C90.2778 26.3756 91.2797 26.6647 91.6469 27.198C92.2203 28.0268 91.6276 28.4637 91.2668 28.7143L91.2024 28.7593C90.8255 29.0195 89.2728 30.0989 89.2502 30.115C89.1633 30.176 88.9055 30.3848 88.5866 30.9759L87.6589 29.6363C88.4964 29.4435 88.6929 29.3279 88.7219 29.3086L88.7251 29.3054Z" fill="black"/>
<path d="M94.7909 32.9706C94.4108 32.8582 94.0822 32.7875 93.5861 32.8454C93.5861 32.8454 90.9189 33.1184 89.8236 33.2341C88.7316 33.3497 87.617 32.8614 87.2401 32.1739C86.8664 31.4864 87.0146 31.0977 87.0146 31.0977L88.2677 31.4961C88.2677 31.4961 87.7587 32.0454 87.9681 32.4309C88.2484 32.9449 89.2502 32.6847 89.4757 32.5627C89.4757 32.5627 91.5084 30.2753 91.8273 29.9123C92.1462 29.5493 92.3749 29.1574 92.5005 28.7622L93.5088 30.6158C93.1384 30.4906 92.9032 30.5805 92.6326 30.86C92.3652 31.1395 90.8415 32.7233 90.8415 32.7233L93.3091 32.3603C93.7794 32.2575 93.8374 31.9715 94.0114 31.5411L94.7877 32.9706H94.7909Z" fill="black"/>
<path d="M93.103 37.9408C92.8936 38.0275 91.9948 38.246 91.3055 36.6172C90.8223 35.4735 91.3183 34.7507 91.3183 34.7507L92.449 35.1972C92.449 35.1972 91.7275 36.1064 92.172 37.1826C92.2235 37.3079 92.3202 37.3978 92.4651 37.4557C92.6649 37.3721 92.7357 36.7521 92.9258 35.7851C93.2673 34.3234 93.6635 34.0215 94.0694 33.8512C94.472 33.6809 95.3064 33.9187 95.7026 34.8567C96.1665 35.9522 95.8508 36.4277 95.8508 36.4277L94.6814 36.4726C94.6814 36.4726 95.2194 35.3354 94.8972 34.5676C94.7974 34.3331 94.7072 34.2463 94.617 34.2817C94.4237 34.362 94.2981 35.043 94.0565 36.0293C93.7569 37.2565 93.6731 37.6998 93.103 37.9376V37.9408Z" fill="black"/>
<path d="M92.2267 38.586C92.7003 38.7627 93.206 38.6149 93.3252 38.5732L95.3515 37.8825C95.3515 37.8825 95.8508 37.7122 96.0054 37.301L97.0523 38.4061L93.686 39.5594C93.6441 39.5723 93.1867 39.7393 92.7873 40.2244L92.2267 38.586ZM97.8254 36.6553L98.8724 37.195C98.4246 37.6704 98.3441 38.2262 98.3441 38.2262L97.2392 37.7315C97.3551 37.0986 97.8254 36.6553 97.8254 36.6553Z" fill="black"/>
<path d="M94.4076 43.675C93.7376 43.4084 93.3864 42.8141 93.2673 42.3579C92.9644 41.2142 93.6313 40.3501 95.1002 39.9613C96.5691 39.5726 97.5452 40.0031 97.8544 41.1628C98.1218 42.1684 97.6064 42.7498 97.6064 42.7498L96.3114 42.178C96.3114 42.178 97.281 41.7218 97.0008 40.6745C96.9364 40.4368 96.7592 40.3886 96.4918 40.4593C96.1214 40.5589 95.5802 40.8833 94.9391 41.2464C94.2369 41.6479 93.8922 42.088 94.1241 42.9651C94.195 43.2317 94.2852 43.4502 94.414 43.675H94.4076Z" fill="black"/>
<path d="M94.9198 47.9667L94.3432 47.0672C94.3432 47.0672 94.3754 46.6624 94.8779 46.5821L95.0325 46.5564C94.8232 46.415 94.0951 45.8946 94.0146 45.4031C93.9244 44.8634 94.6911 43.8579 95.3225 43.7518C95.519 43.7197 95.6994 43.7743 95.8411 43.9574C96.3662 44.661 97.0233 45.5734 97.4067 46.1131C97.6032 46.097 98.3183 45.9171 98.2732 45.644C98.1862 45.1075 97.6676 44.6706 97.1071 44.5068L98.1186 43.8868C98.7016 44.314 98.9014 45.0369 98.75 45.734C98.4729 47.0415 97.8093 47.1668 97.6386 47.1925C96.9299 47.3081 96.3436 47.4045 95.6349 47.5202C95.5544 47.533 95.1131 47.6198 94.9198 47.9667ZM95.3192 46.5082L97.0878 46.1741C96.9879 46.0584 96.7592 45.795 96.1954 45.1397C96.0086 44.9244 95.7767 44.8666 95.5705 44.9019C95.2902 44.9469 95.0583 45.1621 95.0422 45.3838C95.0358 45.4963 95.0454 45.628 95.068 45.7629C95.1163 46.052 95.2162 46.3572 95.316 46.5114L95.3192 46.5082Z" fill="black"/>
<path d="M95.593 48.5804L100.026 48.1949C100.026 48.1949 100.525 48.1531 100.799 47.7837C100.812 47.7837 101.546 49.088 101.546 49.088L95.68 49.5956C95.5866 49.6052 95.1743 49.6566 94.646 50.055L94.4946 48.3298C94.9262 48.6254 95.4384 48.59 95.5898 48.5772L95.593 48.5804Z" fill="black"/>
<path d="M95.3353 55.3459C95.2419 55.2656 94.5879 54.8351 94.6041 53.8296C94.6234 52.6924 95.3997 51.9535 97.0748 51.9792C98.4085 52.0017 99.3652 52.5992 99.3426 53.9163C99.3265 54.9411 98.6597 55.3234 98.6597 55.3234L96.1922 53.261C96.1922 53.261 96.1406 53.261 96.044 53.2995C95.3127 53.624 95.258 54.0159 95.2483 54.5074C95.2451 54.7837 95.287 55.0761 95.3321 55.3491L95.3353 55.3459ZM96.5401 53.1614C96.5401 53.1614 97.5065 53.8296 97.7352 53.9838C98.4278 54.4528 98.6565 53.9838 98.7145 53.2256C98.737 52.914 98.5599 52.8305 98.2055 52.808C97.5645 52.7984 96.5497 53.1646 96.5369 53.1646L96.5401 53.1614Z" fill="black"/>
<path d="M94.4366 58.0029C94.5976 58.1347 94.7104 58.2182 94.7909 58.2278C94.8682 58.2375 94.9777 58.2214 95.0969 58.1668L95.1259 58.1539L96.2437 57.5757L95.2451 56.8882C95.1453 56.8239 95.0486 56.7597 94.9616 56.75C94.8843 56.7404 94.7522 56.8143 94.5622 56.9171L94.7329 55.4297C94.8972 55.7028 95.1292 55.9855 95.5479 56.3421L96.7044 57.3379L98.0863 56.6055C98.5663 56.3517 98.8852 56.1846 99.1784 55.9276L98.9529 57.8841C98.8111 57.7459 98.7048 57.6688 98.6082 57.6592C98.5309 57.6496 98.4117 57.6817 98.2893 57.7363L97.3197 58.1796L98.1798 58.7611C98.2474 58.8029 98.4181 58.9121 98.4632 58.9153C98.5083 58.9217 98.6372 58.8735 98.853 58.7643L98.6823 60.2421C98.5792 59.9915 98.344 59.7281 97.9317 59.3297L96.9524 58.382L95.4094 59.1916C94.9971 59.41 94.588 59.6446 94.2111 59.9433L94.4366 57.9965V58.0029Z" fill="black"/>
<path d="M95.4384 64.4535C93.7665 64.0873 93.3703 63.0014 93.6248 61.8577C93.8793 60.7044 94.7039 59.8981 96.4112 60.274C98.125 60.6498 98.5244 61.726 98.27 62.8793C97.9607 64.2704 96.7591 64.7426 95.4384 64.4535ZM96.6754 63.3323C97.3519 63.1588 97.6515 62.5998 97.8029 61.9445C97.8608 61.6778 97.7255 61.5429 97.4485 61.4819C96.7108 61.318 95.9828 61.2602 95.2355 61.4208C94.5396 61.5686 94.166 62.0537 94.021 62.7187C93.9695 62.934 94.108 63.1139 94.4591 63.191C95.2032 63.3548 95.9216 63.5283 96.6754 63.3355V63.3323Z" fill="black"/>
<path d="M96.2051 68.9996L95.4288 67.8173C95.4288 67.8173 95.9474 67.7627 96.1214 67.2294C96.1697 67.0785 96.1922 66.8921 96.1697 66.6576L93.7859 65.8898C93.744 65.877 93.2769 65.7324 92.6649 65.8834L93.206 64.2354C93.4766 64.6626 93.9727 64.8457 94.0919 64.8843L96.1858 65.5686C96.1858 65.5686 96.7044 65.7163 97.0588 65.4947L97.2263 67.0046L96.4499 66.7508C96.6013 66.9949 96.9782 67.6985 96.7592 68.3635C96.5756 68.9192 96.1987 68.9996 96.1987 68.9996H96.2051Z" fill="black"/>
<path d="M91.3602 70.9561C90.993 70.3361 91.0832 69.6518 91.2668 69.2181C91.7274 68.1291 92.7873 67.8528 94.1853 68.4407C95.5834 69.0286 96.0924 69.9666 95.6253 71.0686C95.2194 72.0291 94.4527 72.1705 94.4527 72.1705L93.7794 70.9272C93.7794 70.9272 94.8264 71.1585 95.2484 70.1562C95.345 69.9281 95.2323 69.7835 94.9778 69.6743C94.6234 69.5265 93.9953 69.4526 93.2672 69.3498C92.4651 69.2374 91.9239 69.3755 91.5696 70.2108C91.4633 70.4646 91.3989 70.6927 91.3634 70.9497L91.3602 70.9561Z" fill="black"/>
<path d="M90.6321 70.9368C90.8351 71.3994 91.2957 71.6564 91.4085 71.711L93.3188 72.6748C93.3188 72.6748 93.7891 72.9125 94.1917 72.7326L94.1305 74.2522L90.9543 72.6555C90.9156 72.6362 90.4775 72.4242 89.8494 72.4788L90.6354 70.9336L90.6321 70.9368ZM95.928 73.5807L96.2727 74.7051C95.6188 74.718 95.1646 75.0489 95.1646 75.0489L94.7458 73.9148C95.2805 73.5582 95.928 73.5807 95.928 73.5807Z" fill="black"/>
<path d="M88.7412 76.3784C88.5447 76.2628 87.8393 75.6652 88.7509 74.1489C89.392 73.0823 90.2682 73.0566 90.2682 73.0566L90.5774 74.2292C90.5774 74.2292 89.4145 74.1875 88.8057 75.1801C88.7348 75.2926 88.7187 75.4275 88.7573 75.5753C88.941 75.6845 89.4854 75.3761 90.3809 74.9585C91.7661 74.3674 92.2461 74.5119 92.623 74.7368C92.9999 74.9617 93.2994 75.7745 92.7744 76.6451C92.1591 77.6666 91.5921 77.6924 91.5921 77.6924L90.8641 76.7768C90.8641 76.7768 92.1043 76.539 92.5328 75.8259C92.6648 75.6074 92.6809 75.4821 92.6004 75.4307C92.42 75.3215 91.7951 75.6267 90.8544 76.0154C89.6819 76.5005 89.276 76.6932 88.7445 76.3752L88.7412 76.3784Z" fill="black"/>
<path d="M85.23 81.0915L86.6216 82.1902C86.7698 82.309 87.3206 82.7202 87.8103 82.1066C87.981 81.8978 88.1034 81.6569 88.1775 81.387L86.1964 79.8354C86.1126 79.7711 85.8291 79.5784 85.1688 79.4499L86.1835 78.1745C86.6119 78.9166 86.7891 79.0772 86.8149 79.0965L88.3579 80.314C88.3579 80.314 88.9152 80.7542 89.4499 80.0827C89.5691 79.9317 89.6819 79.7069 89.7656 79.4049L87.7942 77.8693C87.7523 77.8372 87.3689 77.5448 86.7408 77.4741L87.8199 76.1152C87.9295 76.6132 88.3289 76.9537 88.4255 77.0308C88.9957 77.4806 89.5691 77.9335 90.1393 78.3833C90.1393 78.3833 90.5323 78.6917 90.9833 78.6146C90.9897 78.621 90.6289 80.0763 90.6289 80.0763L89.9686 79.5559C90.0104 79.8 90.0942 80.7509 89.6819 81.2714C89.1954 81.8818 88.7187 81.75 88.3676 81.5284C88.3901 81.6826 88.5318 82.717 88.1002 83.2599C87.4752 84.0502 86.8793 83.6133 86.5346 83.3435L84.6083 81.8336C84.5245 81.7693 84.241 81.5766 83.5839 81.4481L84.5954 80.1727C85.027 80.9148 85.201 81.0754 85.2267 81.0947L85.23 81.0915Z" fill="black"/>
<path d="M80.3142 85.7817C80.1595 85.6146 79.657 84.8372 80.9713 83.6517C81.8959 82.8165 82.7398 83.0446 82.7398 83.0446L82.6915 84.2557C82.6915 84.2557 81.5898 83.8798 80.7201 84.6541C80.6202 84.744 80.5654 84.8629 80.559 85.0203C80.704 85.1777 81.3128 85.0428 82.2921 84.8982C83.79 84.7344 84.2056 85.0107 84.5019 85.3351C84.7951 85.6596 84.8466 86.5238 84.0928 87.2048C83.2069 88.0047 82.6561 87.8666 82.6561 87.8666L82.2244 86.7808C82.2244 86.7808 83.4775 86.9093 84.096 86.3535C84.2861 86.1832 84.3376 86.0676 84.2732 85.9969C84.1315 85.8395 83.4453 85.9487 82.4338 86.0483C81.1711 86.1736 80.7265 86.2411 80.3109 85.7817H80.3142Z" fill="black"/>
<path d="M77.0156 87.8023C77.0188 87.677 76.9608 86.8996 77.7661 86.2956C78.6778 85.6113 79.7376 85.7656 80.7491 87.0988C81.5512 88.1589 81.6672 89.2801 80.6138 90.0736C79.7956 90.6904 79.0837 90.4045 79.0837 90.4045L79.1964 87.1951C79.1964 87.1951 79.1674 87.1534 79.074 87.102C78.3653 86.7261 78.0238 86.9221 77.6308 87.2176C77.4086 87.3847 77.2056 87.5967 77.0188 87.7991L77.0156 87.8023ZM80.791 88.4962C80.4044 87.9854 79.4896 87.4136 79.4831 87.404C79.4831 87.404 79.5508 88.5765 79.5701 88.8496C79.6249 89.6817 80.137 89.5724 80.7717 89.1516C81.0326 88.9781 80.9875 88.7854 80.791 88.4962Z" fill="black"/>
<path d="M75.6755 93.0037L75.843 91.5998C75.843 91.5998 76.2747 91.8889 76.7514 91.5933C76.8867 91.5098 77.022 91.3813 77.1541 91.1854L75.8205 89.0715C75.7979 89.0329 75.5338 88.625 74.9668 88.3487L76.4422 87.4331C76.3745 87.9343 76.6387 88.3904 76.7031 88.4965L77.8692 90.3597C77.8692 90.3597 78.172 90.8063 78.5876 90.8609L77.7468 92.1266L77.3152 91.4359C77.2733 91.7186 77.1122 92.4993 76.5163 92.8719C76.017 93.1836 75.6787 93.0004 75.6755 93.0037Z" fill="black"/>
<path d="M72.686 94.6931L71.0754 95.4802C71.23 95.0915 71.3363 94.7574 71.3105 94.253L70.9433 90.5425L71.5328 90.2534L74.242 92.6628C74.7284 93.0772 75.0086 93.225 75.4274 93.3503L73.5397 94.2755C73.617 93.8772 73.6235 93.7454 73.5784 93.6523C73.5462 93.5912 73.4592 93.4949 73.3529 93.3824L71.4233 91.5192L71.8678 93.9735C71.8839 94.0796 71.9097 94.1791 71.9516 94.2659C71.9967 94.3558 72.0547 94.4265 72.1384 94.4651C72.2608 94.5229 72.38 94.5711 72.6893 94.6931H72.686Z" fill="black"/>
<path d="M68.9493 91.4424C68.7915 91.9243 68.9654 92.419 69.0105 92.5347L69.7933 94.5232C69.7933 94.5232 69.9866 95.0115 70.4054 95.1465L69.3455 96.2387L68.0377 92.9394C68.0216 92.8977 67.838 92.4479 67.329 92.0753L68.9461 91.4424H68.9493ZM71.1366 96.9294L70.6437 97.996C70.1476 97.5719 69.5871 97.5173 69.5871 97.5173L70.0317 96.3929C70.6695 96.4797 71.1366 96.9294 71.1366 96.9294Z" fill="black"/>
<path d="M63.9594 93.8451C64.1946 93.1641 64.7744 92.7882 65.2286 92.6468C66.3593 92.2902 67.2548 92.9167 67.7123 94.3623C68.1697 95.808 67.7831 96.8007 66.6363 97.1605C65.641 97.4753 65.0353 96.9838 65.0353 96.9838L65.5475 95.6667C65.5475 95.6667 66.0468 96.6111 67.0873 96.2835C67.3225 96.2096 67.3612 96.0297 67.2774 95.7662C67.1614 95.4 66.8103 94.8764 66.4173 94.2563C65.9824 93.5753 65.5282 93.2508 64.6584 93.5239C64.3943 93.6074 64.1785 93.707 63.9594 93.8451Z" fill="black"/>
<path d="M60.4417 94.626C60.4965 94.5136 60.7638 93.7843 61.7496 93.5627C62.8642 93.3153 63.7661 93.8936 64.1302 95.5255C64.4201 96.8234 64.0625 97.89 62.774 98.1791C61.7721 98.4007 61.2438 97.8482 61.2438 97.8482L62.6773 94.973C62.6773 94.973 62.6677 94.9216 62.6032 94.838C62.1136 94.2052 61.7206 94.2437 61.2406 94.3497C60.97 94.4108 60.6962 94.52 60.4417 94.6292V94.626ZM63.5922 96.8137C63.4537 96.1905 62.8577 95.291 62.8545 95.2814C62.8545 95.2814 62.4293 96.3768 62.3326 96.6338C62.0395 97.4145 62.5517 97.5269 63.3023 97.4049C63.6115 97.3535 63.6502 97.1607 63.5922 96.8137Z" fill="black"/>
<path d="M55.1909 95.2363C55.2586 95.1335 55.6161 94.4396 56.6212 94.3432C57.7583 94.234 58.5798 94.9215 58.7408 96.5856C58.8665 97.9091 58.3801 98.9243 57.0657 99.0496C56.0446 99.146 55.5871 98.5324 55.5871 98.5324L57.3685 95.8563C57.3685 95.8563 57.3653 95.8049 57.3138 95.715C56.9079 95.0275 56.5117 95.0146 56.022 95.0628C55.745 95.0885 55.4583 95.1624 55.1941 95.2395L55.1909 95.2363ZM57.5038 96.184C57.5038 96.184 56.9466 97.2184 56.8177 97.4626C56.4279 98.2015 56.924 98.3749 57.6842 98.3492C57.9967 98.3364 58.0611 98.1501 58.045 97.7999C57.9838 97.1638 57.5071 96.1968 57.5038 96.1872V96.184Z" fill="black"/>
<path d="M52.4689 94.6356C52.3529 94.8091 52.2789 94.9312 52.2789 95.0083C52.2789 95.0854 52.3014 95.1914 52.3691 95.3071L52.3852 95.3328L53.0713 96.3865L53.6576 95.3296C53.7124 95.2268 53.7671 95.1207 53.7671 95.034C53.7671 94.9537 53.6834 94.8316 53.5642 94.6549L55.0653 94.6806C54.8076 94.8702 54.5499 95.1272 54.2342 95.5769L53.3548 96.8234L54.2213 98.1245C54.5209 98.5742 54.7174 98.8762 55.0041 99.1429L53.0294 99.1107C53.1551 98.9565 53.2195 98.8441 53.2195 98.7477C53.2195 98.6674 53.1776 98.555 53.11 98.4393L52.572 97.5205L52.0759 98.4329C52.0405 98.5036 51.9503 98.6835 51.9471 98.7284C51.9471 98.7734 52.005 98.8955 52.1339 99.0979L50.6424 99.0722C50.8808 98.9437 51.1224 98.6867 51.48 98.2369L52.3304 97.1736L51.3704 95.7215C51.1127 95.3328 50.8389 94.9505 50.5007 94.6035L52.4657 94.6356H52.4689Z" fill="black"/>
<path d="M47.1536 94.9215C47.6336 94.385 48.3165 94.2629 48.7869 94.3079C49.9659 94.4171 50.5522 95.3391 50.4104 96.8458C50.2719 98.3525 49.531 99.1203 48.3327 99.011C47.2922 98.9147 46.9249 98.2304 46.9249 98.2304L47.9074 97.212C47.9074 97.212 48.0041 98.2754 49.0864 98.375C49.3313 98.3975 49.4376 98.2465 49.4633 97.9702C49.4988 97.5879 49.3764 96.9711 49.254 96.245C49.1187 95.4483 48.8223 94.9761 47.9171 94.8926C47.6401 94.8669 47.4049 94.8765 47.1472 94.9183L47.1536 94.9215Z" fill="black"/>
<path d="M46.4579 95.2234L45.7459 99.6021C45.7459 99.6021 45.6654 100.094 45.9553 100.45C45.9553 100.463 44.5025 100.852 44.5025 100.852L45.4464 95.0564C45.4625 94.9632 45.5108 94.552 45.2531 93.9448L46.9668 94.2211C46.5706 94.5681 46.4804 95.0692 46.4579 95.2202V95.2234Z" fill="black"/>
<path d="M42.1928 93.1929L42.006 93.9575C42.225 93.8322 43.1012 93.3568 43.7326 93.5013H43.7487C44.728 93.7423 44.5798 94.4619 44.4767 94.8892L43.9645 96.9902C43.9645 96.9902 43.8421 97.4914 44.1031 97.8608L42.7018 98.1339L43.4137 95.2072C43.4137 95.2072 43.607 94.4201 42.7437 94.2113C42.5439 94.1631 42.2959 94.1535 41.9609 94.1985L41.439 96.3413C41.439 96.3413 41.3198 96.836 41.5808 97.2119L40.0828 97.4978L40.8656 94.282C40.8656 94.282 40.9848 93.7969 40.7239 93.4178C40.7239 93.4082 42.1896 93.1865 42.1896 93.1865L42.1928 93.1929Z" fill="black"/>
<path d="M36.8518 92.6019C36.9291 92.3867 37.3736 91.5803 39.0455 92.1682C40.2213 92.5826 40.421 93.434 40.421 93.434L39.329 93.9673C39.329 93.9673 39.1389 92.8236 38.0405 92.4252C37.9148 92.377 37.7828 92.3899 37.641 92.4574C37.5702 92.6597 37.9793 93.132 38.5688 93.9223C39.4224 95.1591 39.3773 95.6539 39.2324 96.0683C39.0874 96.4795 38.3465 96.9357 37.3865 96.5951C36.2623 96.1968 36.1205 95.6474 36.1205 95.6474L36.8743 94.7543C36.8743 94.7543 37.3543 95.9173 38.1403 96.1936C38.3819 96.2803 38.5076 96.2707 38.5398 96.1807C38.6106 95.9815 38.1886 95.4322 37.6185 94.5905C36.9098 93.5432 36.6392 93.1802 36.8453 92.6019H36.8518Z" fill="black"/>
<path d="M34.6194 96.9456L33.5145 97.3536C33.463 96.7014 33.1054 96.271 33.1054 96.271L34.2168 95.7891C34.6066 96.2999 34.6194 96.9456 34.6194 96.9456ZM36.9581 91.5164C36.5071 91.7477 36.2784 92.2199 36.2269 92.3356L35.3732 94.2952C35.3732 94.2952 35.1638 94.7771 35.3636 95.1691L33.8399 95.1948L35.2508 91.9372C35.2701 91.8955 35.457 91.4489 35.3636 90.8257L36.9581 91.5164Z" fill="black"/>
<path d="M30.4155 93.3506L28.8339 92.5057C29.2398 92.4061 29.5748 92.2969 29.9678 91.9789L32.7736 89.5181L33.3534 89.8265L32.9733 93.4245C32.9185 94.0606 32.9636 94.3722 33.1054 94.7866L31.2531 93.7972C31.6203 93.6269 31.7331 93.5562 31.7846 93.4663C31.8168 93.4053 31.8426 93.28 31.8716 93.1258L32.2614 90.4754L30.5218 92.2648C30.4445 92.3387 30.3769 92.419 30.335 92.5025C30.2867 92.5893 30.2641 92.6792 30.2835 92.7724C30.3092 92.9041 30.3382 93.0294 30.4188 93.3506H30.4155Z" fill="black"/>
<path d="M27.9544 87.2724C28.0736 87.237 28.7888 86.919 29.6295 87.4748C30.5798 88.1012 30.7892 89.1517 29.8615 90.546C29.127 91.6543 28.1058 92.1362 27.0041 91.4101C26.1473 90.8447 26.1827 90.0801 26.1827 90.0801L29.2526 89.1164C29.2526 89.1164 29.2816 89.0746 29.2977 88.9718C29.4169 88.1815 29.1173 87.9245 28.705 87.6547C28.4731 87.5005 28.2057 87.3816 27.9512 87.2724H27.9544ZM28.5568 91.0535C28.9112 90.5202 29.1463 89.4698 29.1528 89.4601C29.1528 89.4601 28.0672 89.9131 27.8159 90.0223C27.0492 90.3532 27.3231 90.7965 27.9287 91.2527C28.1799 91.439 28.3474 91.3362 28.5568 91.0503V91.0535Z" fill="black"/>
<path d="M27.1974 87.2115L24.4947 90.7357C24.4947 90.7357 24.1919 91.1308 24.2757 91.5838C24.2692 91.5934 22.8035 91.2561 22.8035 91.2561L26.3824 86.5947C26.4404 86.5208 26.6788 86.1803 26.74 85.5249L28.1187 86.5786C27.6066 86.6975 27.2909 87.0958 27.1974 87.2179V87.2115Z" fill="black"/>
<path d="M20.03 85.6084C20.4262 85.5891 20.7612 85.5474 21.209 85.3257C21.209 85.3257 23.6347 84.1788 24.6268 83.7066C25.619 83.2343 26.8335 83.3211 27.4165 83.8447C27.9996 84.3684 27.9899 84.7828 27.9899 84.7828L26.6756 84.8246C26.6756 84.8246 26.972 84.1371 26.6466 83.8447C26.2117 83.4528 25.3516 84.0343 25.1809 84.2238C25.1809 84.2238 24.0309 87.0573 23.8505 87.507C23.6701 87.9536 23.5863 88.4001 23.6024 88.8145L22.0304 87.401C22.4234 87.3946 22.6135 87.234 22.7746 86.8806C22.9356 86.5272 23.8408 84.5258 23.8408 84.5258L21.6374 85.6919C21.2283 85.9425 21.2702 86.2349 21.2476 86.6975L20.0364 85.6084H20.03Z" fill="black"/>
<path d="M17.5849 82.8742L16.7602 81.9201L17.2016 81.7499L17.9232 82.5851C18.9604 81.6952 20.1845 80.6576 20.1845 80.6576C20.1845 80.6576 20.5743 80.2528 20.7322 79.6553L21.8725 80.9756C21.283 81.0302 20.8385 81.4125 20.8385 81.4125L18.6061 83.3754L18.9153 83.7352L18.4676 83.899L18.2678 83.6677C18.2066 83.7224 18.1486 83.7738 18.0842 83.8252C17.833 84.0404 17.4754 84.1336 16.538 84.0661C15.4492 83.9858 15.1367 83.7705 14.908 83.5039C14.6696 83.2308 14.544 82.8518 14.6084 82.6751L16.0548 82.6205C16.0548 82.6205 15.7938 83.0413 16.1321 83.4332C16.2803 83.6067 16.509 83.8155 16.7602 83.5971C17.0373 83.3593 17.3111 83.1184 17.5849 82.8775V82.8742Z" fill="black"/>
<path d="M15.8937 76.8989C17.2789 75.8966 18.3548 76.3207 19.0442 77.2716C19.74 78.2289 19.7948 79.379 18.3806 80.4006C16.96 81.4286 15.8873 81.0142 15.1915 80.0569C14.3539 78.9036 14.7985 77.6924 15.8937 76.9022V76.8989ZM15.913 78.5663C15.5941 79.1863 15.8132 79.7806 16.2062 80.33C16.3673 80.5516 16.5573 80.542 16.7893 80.3749C17.4013 79.9316 17.9264 79.4304 18.3065 78.7654C18.6576 78.1486 18.5417 77.5479 18.1422 76.9985C18.0166 76.8154 17.7879 76.7994 17.4947 77.0114C16.8794 77.4579 16.2706 77.8756 15.913 78.5695V78.5663Z" fill="black"/>
<path d="M11.9701 74.4446L13.3714 74.6534C13.3714 74.6534 13.0686 75.0775 13.3521 75.5594C13.4326 75.6943 13.5582 75.8356 13.7483 75.9738L15.9066 74.708C15.9453 74.6855 16.3608 74.435 16.6572 73.876L17.5334 75.373C17.0341 75.2927 16.567 75.5401 16.4607 75.6011L14.5569 76.7094C14.5569 76.7094 14.0994 76.9986 14.0318 77.4098L12.7883 76.5328L13.4938 76.1215C13.2103 76.0734 12.434 75.887 12.0796 75.2831C11.7833 74.7755 11.9733 74.4414 11.9733 74.4414L11.9701 74.4446Z" fill="black"/>
<path d="M9.0645 68.2605C9.43173 68.4115 9.75065 68.5175 10.25 68.5111C10.25 68.5111 12.9333 68.5208 14.0318 68.5208C15.1303 68.5208 16.1901 69.1247 16.4865 69.8475C16.7861 70.5736 16.596 70.9398 16.596 70.9398L15.3912 70.4129C15.3912 70.4129 15.955 69.9214 15.7907 69.5166C15.5684 68.9769 14.5408 69.1311 14.3056 69.2275C14.3056 69.2275 12.041 71.29 11.6835 71.6144C11.3259 71.9421 11.0585 72.3083 10.891 72.6874L10.0857 70.7374C10.4432 70.9012 10.6848 70.837 10.9812 70.5864C11.2776 70.3358 12.9623 68.9223 12.9623 68.9223L10.469 69.0251C9.99225 69.0765 9.90205 69.356 9.683 69.764L9.06128 68.2573L9.0645 68.2605Z" fill="black"/>
<path d="M9.97288 63.2492C11.6158 62.7673 12.4855 63.5255 12.8173 64.6499C13.1523 65.7839 12.8173 66.8858 11.1422 67.3773C9.46069 67.872 8.5877 67.1235 8.2559 65.9895C7.85324 64.6209 8.6779 63.6315 9.97288 63.2492ZM9.4317 64.8265C8.92272 65.3052 8.92917 65.9381 9.116 66.5838C9.19332 66.8472 9.37693 66.8986 9.65075 66.8183C10.3755 66.6063 11.0391 66.3075 11.619 65.8096C12.157 65.347 12.2472 64.743 12.0571 64.0909C11.9991 63.8788 11.7897 63.7857 11.4418 63.8885C10.7138 64.1037 9.99865 64.2933 9.4317 64.8298V64.8265Z" fill="black"/>
<path d="M11.5707 59.4518L10.7943 59.5899C11.0005 59.7409 11.7865 60.3481 11.9089 60.9841V61.0002C12.0893 61.9897 11.3677 62.1471 10.9361 62.2242L8.80031 62.6033C8.80031 62.6033 8.29134 62.6932 8.05618 63.0819L7.24118 61.9093L10.2145 61.3825C10.2145 61.3825 11.0166 61.2411 10.8587 60.3705C10.8233 60.1682 10.7299 59.9401 10.5559 59.6509L8.37831 60.0397C8.37831 60.0397 7.87578 60.1296 7.63418 60.5183L6.76764 59.2686L10.0341 58.6872C10.0341 58.6872 10.5269 58.6004 10.7685 58.2085C10.7782 58.2085 11.5707 59.4518 11.5707 59.4518Z" fill="black"/>
<path d="M10.2241 56.2231L11.1873 56.9556C10.9264 57.5435 10.3691 57.8712 10.3691 57.8712L9.47357 57.1066C10.0212 56.7468 10.2241 56.2264 10.2241 56.2264V56.2231Z" fill="black"/>
<path d="M9.42847 49.7817C10.2274 49.7946 11.1132 50.7487 11.0907 52.1398C11.0714 53.1999 10.8233 53.8745 10.2177 54.3982L9.13855 53.3445C9.76993 52.9718 10.3755 52.3454 10.3949 51.3206C10.4013 50.9543 10.2982 50.8033 10.1146 50.8001C9.71195 50.7937 8.9356 51.6868 8.17859 52.6056C7.45056 53.4858 6.94159 54.1155 6.1588 54.1026C5.35991 54.0898 4.53846 53.3477 4.56746 51.8763C4.58356 50.8965 4.87671 50.36 5.12797 50.0901L6.49704 50.6234C6.00418 51.2177 5.35991 51.8988 5.3438 52.8176C5.34058 53.081 5.3889 53.2577 5.60795 53.2609C5.91398 53.2674 6.6871 52.4514 7.29594 51.6547C7.9692 50.7744 8.58448 49.7689 9.43491 49.785L9.42847 49.7817Z" fill="black"/>
<path d="M5.2182 48.9598L4.49017 48.0345C5.09579 47.7872 5.40181 47.3149 5.40181 47.3149L6.20071 48.2209C5.83025 48.7477 5.2182 48.9566 5.2182 48.9566V48.9598ZM11.1165 49.522C10.7589 49.1622 10.2371 49.0915 10.1114 49.0786L7.97889 48.8666C7.97889 48.8666 7.45381 48.8152 7.14134 49.1268L6.6517 47.6876L10.192 48.0313C10.2371 48.0346 10.7203 48.0763 11.2872 47.7968L11.1133 49.522H11.1165Z" fill="black"/>
<path d="M7.79847 43.5755C8.13671 43.3346 8.54904 43.2286 8.97104 43.3057C10.0727 43.5209 10.3079 44.3915 10.1275 45.397C10.0856 45.638 10.0212 45.85 9.91489 46.0267C9.96966 46.0781 10.0502 46.1423 10.1501 46.1584C10.3949 46.2034 10.6397 45.8757 10.8265 44.8445C11.0198 43.7747 11.1132 42.9105 12.0442 43.3506C12.7529 43.688 13.5131 44.9955 13.3424 45.94C13.1749 46.8716 12.8077 47.286 12.405 47.4852L11.6254 46.3126C12.5242 45.9914 12.8431 44.6421 12.5049 44.157C12.3148 43.8839 11.8606 44.0478 11.3097 46.0556C11.023 47.0965 10.6945 47.4145 10.4174 47.3631C10.0437 47.2956 9.83114 46.6435 9.78604 46.2387C9.44458 46.7078 8.86796 46.9648 8.21725 46.8459C7.46667 46.711 6.89649 45.7536 7.07689 44.7545C7.15098 44.3497 7.32815 44.0092 7.5762 43.7586C7.27661 43.537 6.87072 43.0808 6.99636 42.374L8.04007 42.5604C7.81458 42.8591 7.73404 43.1932 7.79525 43.5659L7.79847 43.5755ZM9.46068 44.3176C9.3125 44.2919 9.09667 44.3048 8.80031 44.3433C8.02074 44.4429 7.66962 44.716 7.55365 45.3456C7.49566 45.6637 7.60519 45.8211 7.88223 45.8725C8.04651 45.9014 8.26879 45.8918 8.55227 45.8564C9.32217 45.7536 9.57343 45.3488 9.6894 44.7063C9.73128 44.4686 9.66041 44.3562 9.45746 44.3176H9.46068Z" fill="black"/>
<path d="M13.3489 38.8144L12.8818 40.3757C12.2085 39.8424 11.983 39.7621 11.9476 39.7492C11.3162 39.5629 10.6881 39.3766 10.0567 39.187C10.0567 39.187 9.3802 38.9879 9.09994 39.9323C9.04196 40.1315 9.01619 40.3757 9.05807 40.7001L11.4612 41.3973C11.5127 41.4133 11.9766 41.5418 12.5854 41.3748L12.0894 43.0357C11.8059 42.6148 11.3066 42.4478 11.1874 42.4124C10.4883 42.2036 9.78931 41.998 9.09028 41.7892C9.09028 41.7892 8.6103 41.6478 8.2173 41.8856C8.20441 41.8824 8.00146 40.3982 8.00146 40.3982L8.81647 40.6391C8.71016 40.4142 8.29461 39.4087 8.47178 38.8208C8.64896 38.2329 9.11605 37.9149 9.89884 38.1494C10.6816 38.3807 11.4676 38.6088 12.2504 38.8401C12.3535 38.869 12.6853 38.9397 13.3457 38.8176L13.3489 38.8144Z" fill="black"/>
<path d="M15.301 34.5351L14.5858 34.201C14.6664 34.4419 14.9595 35.3896 14.6921 35.9807L14.6857 35.9968C14.2605 36.9092 13.5808 36.6232 13.1813 36.4369L11.2163 35.5213C11.2163 35.5213 10.746 35.3029 10.3304 35.486L10.3401 34.0596L13.075 35.3318C13.075 35.3318 13.8127 35.6755 14.1864 34.8724C14.2734 34.6861 14.3314 34.4483 14.3539 34.111L12.3502 33.1794C12.3502 33.1794 11.8896 32.9641 11.4644 33.144L11.4772 31.6245L14.4828 33.022C14.4828 33.022 14.937 33.234 15.359 33.0541C15.3654 33.0573 15.2978 34.5319 15.2978 34.5319L15.301 34.5351Z" fill="black"/>
<path d="M16.2159 28.1618C17.3788 28.8685 17.9554 29.9737 17.3401 30.9792C17.1694 31.2587 16.9085 31.535 16.5412 31.7823L17.2467 32.2096C17.2918 32.2353 17.7074 32.4794 18.3388 32.473L17.4336 33.954C17.266 33.4721 16.8247 33.183 16.7216 33.1219L13.394 31.1013C13.3747 31.1013 12.9656 30.8667 12.5275 30.9728C12.521 30.9695 12.7014 29.4789 12.7014 29.4789L13.4198 29.9158C13.4037 29.691 13.2812 28.5794 13.5679 28.1104C14.035 27.349 15.3204 27.6156 16.2191 28.1618H16.2159ZM15.8938 29.2765C15.3912 28.9713 14.8468 28.7529 14.5601 28.785C14.3121 28.8204 14.1059 29.042 13.9545 29.2894C13.7806 29.5721 13.6743 29.8998 13.6549 30.0508L15.6328 31.2522C16.0903 31.4514 16.4865 31.3133 16.8215 30.8378C16.9117 30.6868 16.9632 30.5037 16.9439 30.3174C16.9053 30.0283 16.4317 29.6074 15.8938 29.2797V29.2765Z" fill="black"/>
<path d="M18.1938 22.3339L18.4934 23.7153C18.4934 23.7153 17.9908 23.5804 17.6365 24.0141C17.5366 24.1362 17.4497 24.3032 17.3884 24.5313L19.3374 26.1023C19.3728 26.1312 19.7561 26.4299 20.3811 26.5102L19.2858 27.8531C19.186 27.3584 18.7897 27.0114 18.6931 26.9311L16.9826 25.5433C16.9826 25.5433 16.5509 25.2188 16.1418 25.2991L16.5283 23.831L17.1597 24.345C17.105 24.0655 17.0051 23.272 17.4497 22.7291C17.8201 22.2761 18.2002 22.3339 18.2002 22.3339H18.1938Z" fill="black"/>
<path d="M17.3691 20.9333L17.3562 19.7576C17.9876 19.9278 18.5159 19.7383 18.5159 19.7383L18.5996 20.943C17.9844 21.1357 17.3691 20.9333 17.3691 20.9333ZM21.7082 24.9555C21.6438 24.4543 21.2734 24.0816 21.1832 23.9949L19.6208 22.5332C19.6208 22.5332 19.2375 22.1734 18.7994 22.2312L19.2858 20.792L21.8886 23.211C21.9208 23.2432 22.2816 23.5676 22.9001 23.6897L21.7115 24.9555H21.7082Z" fill="black"/>
<path d="M22.6972 18.2219C23.1128 18.2347 23.5026 18.4018 23.7925 18.7166C24.5366 19.5551 24.1952 20.3871 23.4381 21.0778C23.2577 21.2417 23.0773 21.3702 22.8873 21.4505C22.897 21.5244 22.9259 21.6239 22.9936 21.6978C23.1611 21.881 23.5573 21.7717 24.3305 21.065C25.1358 20.3325 25.735 19.6996 26.2053 20.6184C26.5628 21.3155 26.3696 22.8126 25.6609 23.4615C24.9586 24.1008 24.4174 24.2068 23.9729 24.1233L24.0663 22.7226C24.9779 23.0118 26.0506 22.1347 26.0796 21.5436C26.0957 21.2127 25.6351 21.0682 23.9729 22.3275C23.1128 22.9796 22.6554 23.0343 22.4653 22.8254C22.2108 22.5459 22.4363 21.9002 22.6489 21.5501C22.0884 21.7171 21.4796 21.5693 21.0318 21.081C20.5164 20.5188 20.6485 19.4137 21.399 18.7294C21.7051 18.4532 22.053 18.2893 22.4041 18.2411C22.301 17.8845 22.2559 17.2742 22.7874 16.7891L23.5026 17.5697C23.1418 17.6725 22.8744 17.8878 22.6972 18.2219ZM23.567 19.8185C23.4671 19.7093 23.2835 19.5872 23.029 19.4394C22.3493 19.0443 21.9048 19.0507 21.428 19.4812C21.1896 19.6996 21.18 19.8924 21.37 20.098C21.4828 20.2201 21.6664 20.3486 21.9112 20.4899C22.5845 20.8754 23.029 20.7052 23.5122 20.265C23.6926 20.1012 23.7023 19.9695 23.5638 19.8185H23.567Z" fill="black"/>
<path d="M28.3056 17.7303C27.9222 17.2035 27.5357 16.6798 27.1523 16.153C27.1394 16.1337 26.7174 15.5715 25.9282 16.1433C25.7639 16.2622 25.6061 16.4453 25.445 16.712C25.9379 17.3834 26.4468 18.0644 26.9268 18.7198C26.959 18.7616 27.249 19.1471 27.8352 19.3816L26.4307 20.4032C26.463 19.8827 26.1634 19.4587 26.0764 19.3398L23.4542 15.7578C23.4542 15.7578 23.1579 15.3563 22.7004 15.3081C22.694 15.3016 23.4349 13.9941 23.4349 13.9941L25.2807 16.5192C25.329 16.2558 25.5932 15.2535 26.115 14.8712C26.93 14.2768 27.3843 14.8551 27.6452 15.2085L27.6935 15.2727C27.9641 15.639 29.0883 17.1617 29.1045 17.1842C29.1657 17.2677 29.3847 17.5215 29.9839 17.8203L28.6664 18.7808C28.4505 17.952 28.3313 17.7592 28.3088 17.7303H28.3056Z" fill="black"/>
<path d="M32.474 15.6746C32.474 15.6746 32.5416 16.4713 31.4722 17.1074C30.6765 17.5829 30.029 17.0721 29.8293 16.7219C29.6295 16.3717 28.3829 14.1101 28.3829 14.1101L28.006 14.335L28.4956 12.2886L29.04 13.1977L29.9581 12.6484L30.0451 13.1174L29.2849 13.5704C29.2849 13.5704 30.7667 16.0376 30.8375 16.1597C31.2048 16.7701 32.3097 15.8834 32.4675 15.6746H32.474Z" fill="black"/>
<path d="M38.3047 13.6342L36.8035 14.2799C36.781 13.4222 36.6972 13.1973 36.6843 13.1652C36.4234 12.5644 36.1625 11.9605 35.9015 11.3597C35.9015 11.3597 35.6213 10.714 34.7161 11.1059C34.526 11.1895 34.3199 11.3276 34.0976 11.5653L35.1059 13.8494C35.1252 13.8976 35.3249 14.3377 35.8436 14.6943L34.249 15.3818C34.3907 14.8967 34.2007 14.4052 34.1491 14.2896C33.8592 13.6213 33.5693 12.9564 33.2826 12.2881C33.2826 12.2881 33.0829 11.8287 32.648 11.6842C32.6415 11.6713 33.653 10.563 33.653 10.563L33.9913 11.3437C34.0944 11.1188 34.6033 10.155 35.1703 9.91086C35.7372 9.66671 36.2784 9.82091 36.6038 10.5694C36.9291 11.318 37.2577 12.0633 37.5831 12.8118C37.625 12.9082 37.786 13.2069 38.3047 13.6342Z" fill="black"/>
<path d="M42.0317 10.2002C42.531 11.8322 41.7805 12.7092 40.6562 13.0497C39.5223 13.3935 38.4142 13.0722 37.9052 11.4081C37.393 9.7344 38.1339 8.85737 39.2678 8.51363C40.6337 8.096 41.6355 8.90877 42.0317 10.2002ZM40.4436 9.67657C39.9604 9.17541 39.3258 9.18827 38.6783 9.37781C38.4174 9.45812 38.3626 9.64123 38.4464 9.9143C38.6686 10.6371 38.9715 11.2957 39.4804 11.8675C39.9507 12.4008 40.5564 12.4843 41.2103 12.2852C41.4229 12.2241 41.5131 12.0153 41.4068 11.6716C41.1845 10.9455 40.9848 10.2356 40.4436 9.67657Z" fill="black"/>
<path d="M46.7768 6.99092L48.4293 6.71143C48.1716 7.04874 47.9912 7.4214 47.8914 7.8326C47.7367 8.9056 47.2503 11.4564 47.2503 11.4564L46.6286 11.5624L45.3916 9.35856L44.9664 11.8451L44.3253 11.9543C44.3253 11.9543 42.6116 9.01803 42.3249 8.549C42.109 8.19241 41.9834 8.10888 41.6387 7.86794L43.6102 7.53384C43.2236 8.10567 43.4298 8.28557 43.7423 8.8799C44.1578 9.66697 44.8085 10.7496 44.8085 10.7496L45.1532 7.39891C45.3948 7.34109 45.6235 7.57239 45.7492 7.82297L47.0957 10.3448L47.3373 7.89686C47.3566 7.47601 47.1666 7.17725 46.7736 6.99734L46.7768 6.99092Z" fill="black"/>
<path d="M50.7068 4.98642C50.7132 5.08923 50.7068 5.14705 50.7068 5.14705L50.1141 9.04387C49.4891 8.1797 49.051 5.23379 49.051 5.23379L50.4265 4.14795C50.6424 4.50454 50.6971 4.80973 50.71 4.98964L50.7068 4.98642ZM51.0193 10.2389L50.2494 11.1706C49.6695 10.8911 49.3603 10.3225 49.3603 10.3225L50.1592 9.45829C50.5006 10.0173 51.016 10.2389 51.016 10.2389H51.0193Z" fill="black"/>
</g>
<g clip-path="url(#clip1_0_14)">
<path d="M72.7378 48.8538L71.5442 49.2666L69.1471 50.0961L59.0584 53.5891L59.7698 54.4409L63.4788 58.8803L68.506 64.8989L63.6083 63.3831L56.6219 61.2218L54.4875 60.5615L54.5343 61.2218L54.7119 63.7089L55.5405 75.3109L47.0362 63.9078L46.7267 63.4925L44.744 66.7057L43.8007 68.2353L38.9807 76.0495L38.739 61.2629L25.1546 66.8301L33.5763 54.7244L19.342 51.1754L33.2113 46.3755L23.7625 35.0657L37.781 39.4031L37.2878 32.4829L37.0855 29.6427L36.7292 24.6524L43.2791 33.4367L45.543 36.4721L45.7686 36.1052L53.2877 23.915L53.5097 37.4582L53.5306 38.7017L60.485 35.8516L67.1151 33.1332L64.1632 37.3749L63.4455 38.407L61.9573 40.5471L58.6922 45.2389L59.247 45.3769L62.8685 46.2797L68.8105 47.762L71.4344 48.4161L72.723 48.7369C72.7279 48.7755 72.7328 48.8152 72.7378 48.8538Z" fill="#2A2927"/>
<path d="M76.6292 69.4927C75.9486 69.4927 75.3962 70.0498 75.3962 70.7362C75.3962 71.7646 74.5663 72.6014 73.5466 72.6014C72.5269 72.6014 71.6971 71.7646 71.6971 70.7362V52.0834C71.6971 50.6335 71.57 47.8418 70.7205 45.4306C69.5059 41.9836 67.48 41.2598 65.9942 41.2598C65.6157 41.2598 65.2618 41.2946 64.9289 41.3606C64.7304 40.6132 64.4332 39.8808 64.0312 39.1794L64.0288 39.1744C63.2211 37.768 61.596 37.0157 59.4554 37.0555C57.575 37.0916 55.4529 37.7444 53.4801 38.8934C52.3161 39.5711 51.2754 40.3794 50.4184 41.2623C50.3703 41.2611 50.321 41.2598 50.2717 41.2598C49.5171 41.2598 48.6231 41.4464 47.7674 42.0843L43.1891 34.0872C43.3469 33.6022 43.3087 33.0526 43.0362 32.5763L38.6823 24.9722C38.1718 24.0806 37.0399 23.7747 36.1558 24.2895C35.2705 24.8044 34.9684 25.9459 35.4789 26.8375L39.8327 34.4416C40.1065 34.9191 40.5578 35.2263 41.0547 35.332L46.0978 44.1435C45.9005 44.5228 45.7156 44.9506 45.5467 45.4306C44.6971 47.8418 44.5701 50.6335 44.5701 52.0834V64.5186C44.5701 72.0605 50.6539 78.1973 58.1336 78.1973H70.464C74.5429 78.1973 77.8623 74.8497 77.8623 70.7362C77.8623 70.0498 77.3099 69.4927 76.6292 69.4927Z" fill="white"/>
<path d="M76.6292 68.249C75.2692 68.249 74.1632 69.3644 74.1632 70.736C74.1632 71.0792 73.887 71.3578 73.5466 71.3578C73.2063 71.3578 72.9301 71.0792 72.9301 70.736V52.0832C72.9301 51.2998 72.8944 50.1434 72.7378 48.8538C72.7328 48.8153 72.7279 48.7755 72.723 48.7369C72.5713 47.5394 72.3136 46.2362 71.882 45.0138C70.3506 40.6653 67.5355 40.0161 65.9942 40.0161C65.9264 40.0161 65.8586 40.0174 65.7908 40.0186C65.6034 39.5274 65.379 39.0499 65.1175 38.5911V38.5886L65.0954 38.5513C64.8413 38.1086 64.5282 37.7156 64.1632 37.3749C63.2421 36.5181 61.9869 35.9946 60.485 35.8516C60.2039 35.8242 59.9141 35.8106 59.6157 35.8106C59.5553 35.8106 59.4949 35.8106 59.4332 35.8106C57.5541 35.8466 55.4751 36.4273 53.5097 37.457C53.2927 37.5714 53.0769 37.6908 52.8636 37.8151C51.7625 38.4568 50.7699 39.1991 49.9043 40.0261C49.3173 40.0634 48.7588 40.1902 48.231 40.4041L45.7686 36.104L44.4924 33.8756C44.5713 33.2141 44.4382 32.5376 44.104 31.9532L39.7501 24.3503C39.2014 23.3915 38.178 22.7959 37.0781 22.7959C36.5393 22.7959 36.0079 22.9401 35.5393 23.2125C34.8266 23.6266 34.3161 24.2981 34.1028 25.1001C33.8895 25.9022 33.9992 26.7403 34.4111 27.4591L37.2878 32.4829L38.7649 35.0632C39.1003 35.6477 39.6145 36.1015 40.2224 36.3639L44.7045 44.1981C44.5911 44.458 44.4838 44.7316 44.3852 45.0151C43.4727 47.6016 43.3371 50.5537 43.3371 52.0832V64.5184C43.3371 65.8017 43.4986 67.0465 43.8007 68.2353C45.4443 74.6717 51.247 79.4406 58.1336 79.4406H70.464C75.2236 79.4406 79.0953 75.536 79.0953 70.736C79.0953 69.3644 77.9893 68.249 76.6292 68.249ZM70.464 78.1971H58.1336C51.3925 78.1971 45.7847 73.2119 44.744 66.7058C44.6293 65.9932 44.5701 65.2633 44.5701 64.5184V52.0832C44.5701 50.6333 44.6971 47.8416 45.5467 45.4304C45.7156 44.9504 45.9006 44.5226 46.0979 44.1434L41.0547 35.3318C40.5578 35.2261 40.1065 34.919 39.8328 34.4414L37.0855 29.6427L35.4789 26.8373C34.9684 25.9457 35.2705 24.8042 36.1558 24.2894C36.6318 24.0121 37.1805 23.9723 37.6651 24.1352C37.7403 24.16 37.8143 24.1911 37.8858 24.2259C37.9573 24.2608 38.0276 24.3006 38.0942 24.3441C38.1608 24.3888 38.2261 24.4373 38.2878 24.4908C38.3186 24.5169 38.3482 24.5455 38.3765 24.5741C38.4061 24.6027 38.4345 24.6326 38.4616 24.6637C38.5442 24.7569 38.6182 24.8601 38.6823 24.9721L43.0362 32.5762C43.1916 32.8473 43.2705 33.1432 43.2791 33.4367C43.289 33.658 43.2569 33.8781 43.1891 34.087L47.7674 42.0841C48.6231 41.4462 49.5171 41.2597 50.2717 41.2597C50.321 41.2597 50.3703 41.2609 50.4184 41.2621C51.2754 40.3792 52.3161 39.571 53.4801 38.8932C55.453 37.7442 57.575 37.0914 59.4554 37.0553C59.9005 37.0466 60.3235 37.0727 60.7205 37.1324C60.8956 37.1585 61.0658 37.1909 61.231 37.2294C61.3962 37.268 61.5553 37.3127 61.7106 37.3637C61.813 37.3973 61.9141 37.4346 62.0127 37.4731C62.1102 37.5129 62.2063 37.5552 62.3 37.6C62.3469 37.6224 62.3925 37.6447 62.4381 37.6696C62.5294 37.7169 62.6169 37.7666 62.7033 37.8201C62.7464 37.8462 62.7883 37.8736 62.8303 37.9009C62.9129 37.9556 62.993 38.0141 63.0719 38.075C63.1496 38.1359 63.2248 38.1981 63.2963 38.264H63.2976C63.3346 38.2988 63.3691 38.3324 63.4036 38.366C63.4184 38.3797 63.432 38.3933 63.4455 38.4083C63.4665 38.4282 63.4862 38.4481 63.506 38.4692C63.6058 38.5761 63.6996 38.6881 63.7871 38.805C63.8746 38.9231 63.9548 39.0462 64.0288 39.1743L64.0312 39.1793C64.4332 39.8806 64.7304 40.613 64.9289 41.3604C65.2618 41.2945 65.6157 41.2597 65.9942 41.2597C67.4801 41.2597 69.5059 41.9834 70.7205 45.4304C71.0633 46.4016 71.2877 47.435 71.4344 48.4161C71.4776 48.7046 71.5133 48.9894 71.5442 49.2667C71.6675 50.3871 71.6971 51.3894 71.6971 52.0832V70.736C71.6971 71.7644 72.5269 72.6013 73.5466 72.6013C74.5664 72.6013 75.3962 71.7644 75.3962 70.736C75.3962 70.0496 75.9486 69.4925 76.6292 69.4925C77.3099 69.4925 77.8623 70.0496 77.8623 70.736C77.8623 74.8496 74.5429 78.1971 70.464 78.1971Z" fill="white"/>
<path d="M76.6292 69.4924C75.9486 69.4924 75.3962 70.0495 75.3962 70.7359C75.3962 71.7643 74.5663 72.6012 73.5466 72.6012C72.5269 72.6012 71.6971 71.7643 71.6971 70.7359V52.0832C71.6971 51.3893 71.6675 50.387 71.5442 49.2666C71.5133 48.9893 71.4776 48.7045 71.4344 48.416C71.2877 47.4349 71.0633 46.4015 70.7205 45.4304C69.5059 41.9833 67.48 41.2596 65.9942 41.2596C65.6157 41.2596 65.2618 41.2944 64.9289 41.3603C64.7304 40.613 64.4332 39.8805 64.0312 39.1792L64.0288 39.1742C63.9548 39.0461 63.8746 38.923 63.7871 38.8049C63.6995 38.688 63.6058 38.5761 63.5059 38.4691C63.4862 38.448 63.4665 38.4281 63.4455 38.4082C63.432 38.3933 63.4184 38.3796 63.4036 38.3659C63.3691 38.3323 63.3346 38.2988 63.2976 38.2652H63.2963C63.2248 38.198 63.1496 38.1359 63.0719 38.0749C62.993 38.014 62.9129 37.9556 62.8302 37.9008C62.7883 37.8735 62.7464 37.8461 62.7032 37.82C62.6169 37.7665 62.5294 37.7168 62.4381 37.6696C62.3925 37.6447 62.3469 37.6223 62.3 37.5999C62.2063 37.5552 62.1101 37.5129 62.0127 37.4731C61.9141 37.4345 61.813 37.3972 61.7106 37.3636C61.5553 37.3127 61.3962 37.2679 61.231 37.2293C61.0658 37.1908 60.8956 37.1585 60.7205 37.1324C60.3235 37.0727 59.9005 37.0466 59.4554 37.0553C57.575 37.0913 55.4529 37.7442 53.4801 38.8932C52.3161 39.5709 51.2754 40.3792 50.4184 41.2621C50.3703 41.2608 50.321 41.2596 50.2717 41.2596C49.5171 41.2596 48.6231 41.4461 47.7674 42.084L43.1891 34.087C43.2569 33.8781 43.289 33.658 43.2791 33.4366C43.2705 33.1431 43.1916 32.8472 43.0362 32.5761L38.6823 24.972C38.6182 24.8601 38.5442 24.7569 38.4616 24.6636C38.4345 24.6325 38.4061 24.6027 38.3765 24.5741C38.3482 24.5455 38.3186 24.5169 38.2877 24.4907C38.2261 24.4373 38.162 24.3888 38.0941 24.344C38.0276 24.3005 37.9573 24.2607 37.8858 24.2259C37.8142 24.1911 37.7403 24.16 37.6651 24.1351C37.1805 23.9722 36.6318 24.012 36.1558 24.2893C35.2705 24.8041 34.9684 25.9457 35.4789 26.8373L37.0855 29.6426L39.8327 34.4414C40.1065 34.9189 40.5578 35.226 41.0547 35.3317L46.0978 44.1433C45.9005 44.5226 45.7156 44.9504 45.5467 45.4304C44.6971 47.8415 44.5701 50.6332 44.5701 52.0832V64.5184C44.5701 65.2632 44.6293 65.9932 44.744 66.7057C45.7846 73.2118 51.3925 78.1971 58.1336 78.1971H70.464C74.5429 78.1971 77.8623 74.8495 77.8623 70.7359C77.8623 70.0495 77.3099 69.4924 76.6292 69.4924ZM53.0238 42.227C53.5232 41.8105 54.088 41.4113 54.7131 41.047C57.9499 39.163 61.1743 39.163 61.8956 40.4227C61.919 40.4625 61.9387 40.5035 61.9572 40.5471C62.4184 41.6351 61.3925 43.672 59.247 45.3769C58.8019 45.7313 58.3074 46.0708 57.7686 46.3841C57.2532 46.6838 56.7365 46.9363 56.2322 47.1439C53.5775 48.2332 51.2088 48.0679 50.5923 47.0183L50.5824 47.0022C50.0078 45.9837 50.9449 43.9593 53.0238 42.227ZM70.464 75.71H58.1336C52.014 75.71 47.0362 70.6899 47.0362 64.5184V52.0832C47.0362 50.2726 47.2421 48.4011 47.6712 46.8915L48.4505 48.2519C48.4554 48.2606 48.4616 48.2668 48.4665 48.2755C49.543 50.1433 51.1829 51.4801 53.0448 52.1914C53.0448 52.1914 53.0456 52.1918 53.0473 52.1926C53.2815 52.3107 53.5343 52.3965 53.8081 52.4438C53.9831 52.4774 54.1669 52.4935 54.3605 52.4935H58.3765L58.3617 52.4736C60.3087 52.3232 61.1632 50.254 61.9905 48.2494C62.2914 47.5195 62.5762 46.8579 62.8685 46.2797C63.5183 44.9976 64.2113 44.1271 65.2322 43.8449C65.4677 43.7802 65.7205 43.7466 65.9942 43.7466C67.3999 43.7466 68.3222 45.4751 68.8105 47.7619C68.9671 48.4956 69.0793 49.2865 69.1471 50.096C69.2038 50.7526 69.231 51.4229 69.231 52.0832V70.7359C69.231 72.9245 70.8401 74.7401 72.9276 75.0435C72.2026 75.4675 71.3604 75.71 70.464 75.71Z" fill="#2A2927"/>
<path d="M57.7686 46.3843C57.2532 46.684 56.7366 46.9364 56.2323 47.1441C53.5775 48.2334 51.2088 48.068 50.5923 47.0185L50.5825 47.0023C50.0079 45.9839 50.945 43.9594 53.0239 42.2272C53.5233 41.8106 54.088 41.4115 54.7131 41.0471C57.9499 39.1632 61.1743 39.1632 61.8956 40.4229C62.617 41.6838 61.0054 44.5004 57.7686 46.3843Z" fill="white"/>
<path d="M69.231 70.7359V52.0831C69.231 51.4228 69.2039 50.7526 69.1471 50.096C69.0793 49.2865 68.9671 48.4956 68.8105 47.7619C68.3222 45.4751 67.3999 43.7466 65.9942 43.7466C65.7205 43.7466 65.4677 43.7802 65.2322 43.8448C64.2113 44.1271 63.5183 44.9976 62.8685 46.2796C62.5762 46.8579 62.2914 47.5194 61.9905 48.2494C61.1632 50.2539 60.3087 52.3231 58.3617 52.4736L58.3765 52.4935H54.3605C54.1669 52.4935 53.9832 52.4773 53.8081 52.4438C53.5343 52.3965 53.2816 52.3107 53.0473 52.1926C53.0473 52.1926 53.0465 52.1921 53.0448 52.1913C51.1829 51.48 49.543 50.1432 48.4665 48.2755C48.4616 48.2668 48.4554 48.2606 48.4505 48.2519L47.6712 46.8914C47.2421 48.4011 47.0362 50.2726 47.0362 52.0831V64.5183C47.0362 70.6899 52.014 75.71 58.1336 75.71H70.464C71.3604 75.71 72.2026 75.4675 72.9276 75.0435C70.8401 74.74 69.231 72.9245 69.231 70.7359ZM58.8882 56.5648C58.4061 56.0786 58.4061 55.2914 58.8882 54.8052C59.1311 54.5602 59.4505 54.4384 59.7698 54.4408C60.0818 54.4433 60.3938 54.5652 60.6317 54.8052L61.067 55.2454L61.5035 54.8052C61.9856 54.3202 62.7661 54.3202 63.247 54.8052C63.7279 55.2902 63.7291 56.0786 63.247 56.5648L62.8118 57.0037L63.247 57.4439C63.633 57.8319 63.7094 58.4139 63.4788 58.8802C63.4209 58.9971 63.3432 59.1053 63.247 59.2023C63.0066 59.4448 62.6909 59.5666 62.3753 59.5666C62.0596 59.5666 61.7439 59.4448 61.5035 59.2023L61.067 58.7621L60.6317 59.2023C60.3913 59.4448 60.0756 59.5666 59.76 59.5666C59.4443 59.5666 59.1287 59.4448 58.8882 59.2023C58.4061 58.7161 58.4061 57.9289 58.8882 57.4439L59.3235 57.0037L58.8882 56.5648ZM52.1805 56.5648C51.6996 56.0786 51.6996 55.2914 52.1805 54.8052C52.6626 54.3202 53.4431 54.3202 53.924 54.8052L54.3605 55.2454L54.797 54.8052C55.2779 54.3202 56.0584 54.3202 56.5405 54.8052C57.0214 55.2914 57.0214 56.0786 56.5405 56.5648L56.104 57.0037L56.5405 57.4439C57.0214 57.9289 57.0214 58.7161 56.5405 59.2023C56.3 59.4448 55.9844 59.5666 55.6687 59.5666C55.3531 59.5666 55.0374 59.4448 54.797 59.2023L54.3605 58.7621L53.924 59.2023C53.6835 59.4448 53.3679 59.5666 53.0522 59.5666C52.7366 59.5666 52.4221 59.4448 52.1805 59.2023C51.6996 58.7161 51.6996 57.9289 52.1805 57.4439L52.6169 57.0037L52.1805 56.5648ZM63.6083 64.4959C63.6083 66.636 61.882 68.3782 59.76 68.3782C57.6379 68.3782 55.9104 66.636 55.9104 64.4959V63.7088H53.0522C52.3716 63.7088 51.8192 63.1517 51.8192 62.4653C51.8192 61.7788 52.3716 61.2217 53.0522 61.2217H62.3753C63.0559 61.2217 63.6083 61.7776 63.6083 62.4653V64.4959Z" fill="white"/>
<path d="M56.5405 57.4439C57.0214 57.9289 57.0214 58.716 56.5405 59.2022C56.3001 59.4447 55.9844 59.5666 55.6688 59.5666C55.3531 59.5666 55.0374 59.4447 54.797 59.2022L54.3605 58.762L53.924 59.2022C53.6836 59.4447 53.3679 59.5666 53.0523 59.5666C52.7366 59.5666 52.4222 59.4447 52.1805 59.2022C51.6996 58.716 51.6996 57.9289 52.1805 57.4439L52.617 57.0037L52.1805 56.5647C51.6996 56.0785 51.6996 55.2914 52.1805 54.8051C52.6626 54.3202 53.4431 54.3202 53.924 54.8051L54.3605 55.2453L54.797 54.8051C55.2779 54.3202 56.0584 54.3202 56.5405 54.8051C57.0214 55.2914 57.0214 56.0785 56.5405 56.5647L56.104 57.0037L56.5405 57.4439Z" fill="#2A2927"/>
<path d="M63.247 57.4439C63.7291 57.9288 63.7291 58.716 63.247 59.2022C63.0066 59.4447 62.6909 59.5665 62.3752 59.5665C62.0596 59.5665 61.7439 59.4447 61.5035 59.2022L61.067 58.762L60.6317 59.2022C60.3913 59.4447 60.0756 59.5665 59.76 59.5665C59.4443 59.5665 59.1286 59.4447 58.8882 59.2022C58.4061 58.716 58.4061 57.9288 58.8882 57.4439L59.3235 57.0037L58.8882 56.5647C58.4061 56.0785 58.4061 55.2913 58.8882 54.8051C59.3703 54.3189 60.1496 54.3201 60.6317 54.8051L61.067 55.2453L61.5035 54.8051C61.9856 54.3201 62.7661 54.3201 63.247 54.8051C63.7279 55.2901 63.7291 56.0785 63.247 56.5647L62.8117 57.0037L63.247 57.4439Z" fill="#2A2927"/>
<path d="M62.3752 61.2217H53.0522C52.3716 61.2217 51.8192 61.7775 51.8192 62.4652C51.8192 63.1529 52.3716 63.7087 53.0522 63.7087H55.9104V64.4959C55.9104 66.636 57.6379 68.3781 59.76 68.3781C61.882 68.3781 63.6083 66.636 63.6083 64.4959V62.4652C63.6083 61.7775 63.0559 61.2217 62.3752 61.2217ZM61.1422 64.4959C61.1422 65.2644 60.522 65.8911 59.76 65.8911C58.9979 65.8911 58.3765 65.2644 58.3765 64.4959V63.7087H61.1422V64.4959Z" fill="#2A2927"/>
<path d="M61.1422 63.709V64.4961C61.1422 65.2646 60.522 65.8914 59.76 65.8914C58.998 65.8914 58.3765 65.2646 58.3765 64.4961V63.709H61.1422Z" fill="white"/>
</g>
<defs>
<clipPath id="clip0_0_14">
<rect width="97.0559" height="96.7105" fill="white" transform="translate(4.49017 4.14453)"/>
</clipPath>
<clipPath id="clip1_0_14">
<rect width="59.7533" height="56.6447" fill="white" transform="translate(19.342 22.7959)"/>
</clipPath>
</defs>
</svg>
